<?xml version="1.0" encoding="utf-8"?>
<!-- Generator: Adobe Illustrator 17.1.0, SVG Export Plug-In . SVG Version: 6.00 Build 0)  -->
<!DOCTYPE svg PUBLIC "-//W3C//DTD SVG 1.1//EN" "http://www.w3.org/Graphics/SVG/1.1/DTD/svg11.dtd">
<svg version="1.1" id="Layer_1" xmlns="http://www.w3.org/2000/svg" xmlns:xlink="http://www.w3.org/1999/xlink" x="0px" y="0px"
	 viewBox="0 0 1200 214" enable-background="new 0 0 1200 214" xml:space="preserve">
<g>
	<path d="M33.6,190.5c-6.8,0-11.7-1.7-14.8-5.2c-3.1-3.5-4.7-9.1-4.7-17v-42.1c0-6.6-1.1-11.2-3.3-13.6c-2.2-2.5-5.1-3.8-8.8-4.1
		c-1.4-0.3-2.1-1-2.1-2.1v-6.8c0-1.1,0.7-1.8,2.1-2.1c3.7-0.3,6.6-1.7,8.8-4.1c2.2-2.5,3.3-7,3.3-13.6V38.4c0-7.9,1.5-13.6,4.7-17
		c3.1-3.5,8-5.2,14.8-5.2h7.2c1.4,0,2.1,0.7,2.1,2.1V24c0,1.4-0.7,2.1-2.1,2.1h-5.5c-3.5,0-6.1,0.9-7.8,2.7C25.8,30.7,25,33.8,25,38
		v40.4c0,8-0.8,13.7-2.5,17.1c-1.7,3.4-4.4,5.8-8.2,7.2v0.4c1.8,0.7,3.5,1.6,4.9,2.8c1.4,1.1,2.5,2.6,3.4,4.4
		c0.8,1.8,1.5,4.1,1.9,6.9c0.4,2.8,0.6,6.2,0.6,10.3v41.2c0,4.2,0.8,7.3,2.5,9.1c1.7,1.8,4.3,2.7,7.8,2.7h5.5c1.4,0,2.1,0.7,2.1,2.1
		v5.7c0,1.4-0.7,2.1-2.1,2.1H33.6z"/>
	<path fill="#905A27" d="M159.3,172.7c-1.4,0-2.1-0.7-2.1-2.1v-7.4h-0.2c-2.4,3.5-6,6.4-10.8,8.6c-4.8,2.2-10.8,3.3-18,3.3
		c-4.7,0-9.1-0.6-13.2-1.9c-4.2-1.3-7.8-3.2-10.9-5.7c-3.1-2.5-5.6-5.7-7.4-9.6c-1.8-3.9-2.8-8.5-2.8-13.9
		c0-11.1,3.6-19.3,10.9-24.5c7.3-5.2,17.2-7.8,29.9-7.8h20.7c0.8,0,1.3-0.4,1.3-1.3v-4.9c0-5.9-1.6-10.2-4.9-12.9
		c-3.2-2.7-9.2-4-17.8-4c-5.8,0-10.5,0.7-14.2,2c-3.7,1.3-6.7,3-9.1,5c-1.3,1-2.3,0.8-3-0.4l-7.8-14c-0.7-1.1-0.6-2,0.4-2.7
		c4.1-3,9-5.4,14.8-7.2c5.8-1.8,12.9-2.7,21.4-2.7c15.5,0,26.5,2.8,32.9,8.5c6.4,5.6,9.6,14.7,9.6,27.1v66.6c0,1.4-0.7,2.1-2.1,2.1
		H159.3z M134.1,155.8c7.3,0,12.9-1.4,16.8-4.2c3.9-2.8,5.8-7.2,5.8-13.1v-7.8c0-0.8-0.4-1.3-1.3-1.3h-16.9
		c-7.6,0-13.2,1.1-16.7,3.3c-3.5,2.2-5.3,5.7-5.3,10.5C116.5,151.6,122.4,155.8,134.1,155.8z"/>
	<path fill="#905A27" d="M268.4,172.7c-1.4,0-2.1-0.7-2.1-2.1v-58.8c0-6.6-1.6-12-4.9-16.1c-3.2-4.1-8-6.1-14.4-6.1
		c-6.2,0-11,2-14.4,6.1c-3.4,4.1-5.1,9.4-5.1,16.1v58.8c0,1.4-0.7,2.1-2.1,2.1H206c-1.4,0-2.1-0.7-2.1-2.1V72.9
		c0-1.4,0.7-2.1,2.1-2.1h19.5c1.4,0,2.1,0.7,2.1,2.1v7.4h0.2c2.3-3.2,5.6-6,10-8.4c4.4-2.3,10-3.5,16.8-3.5c5.5,0,10.4,1,14.7,2.9
		c4.3,1.9,8,4.5,11.1,7.9c3.1,3.4,5.5,7.4,7.1,11.9c1.6,4.6,2.4,9.6,2.4,15.1v64.3c0,1.4-0.7,2.1-2.1,2.1H268.4z"/>
	<path fill="#905A27" d="M373.7,172.7c-1.4,0-2.1-0.7-2.1-2.1v-58.8c0-6.6-1.6-12-4.9-16.1c-3.2-4.1-8-6.1-14.4-6.1
		c-6.2,0-11,2-14.4,6.1c-3.4,4.1-5.1,9.4-5.1,16.1v58.8c0,1.4-0.7,2.1-2.1,2.1h-19.5c-1.4,0-2.1-0.7-2.1-2.1V72.9
		c0-1.4,0.7-2.1,2.1-2.1h19.5c1.4,0,2.1,0.7,2.1,2.1v7.4h0.2c2.3-3.2,5.6-6,10-8.4c4.4-2.3,10-3.5,16.8-3.5c5.5,0,10.4,1,14.7,2.9
		c4.3,1.9,8,4.5,11.1,7.9c3.1,3.4,5.5,7.4,7.1,11.9c1.6,4.6,2.4,9.6,2.4,15.1v64.3c0,1.4-0.7,2.1-2.1,2.1H373.7z"/>
	<path fill="#905A27" d="M475.2,172.7c-1.4,0-2.1-0.7-2.1-2.1v-7.4h-0.2c-2.4,3.5-6,6.4-10.8,8.6c-4.8,2.2-10.8,3.3-18,3.3
		c-4.7,0-9.1-0.6-13.2-1.9c-4.2-1.3-7.8-3.2-10.9-5.7c-3.1-2.5-5.6-5.7-7.4-9.6c-1.8-3.9-2.8-8.5-2.8-13.9
		c0-11.1,3.6-19.3,10.9-24.5c7.3-5.2,17.2-7.8,29.9-7.8h20.7c0.8,0,1.3-0.4,1.3-1.3v-4.9c0-5.9-1.6-10.2-4.9-12.9
		c-3.2-2.7-9.2-4-17.8-4c-5.8,0-10.5,0.7-14.2,2c-3.7,1.3-6.7,3-9.1,5c-1.3,1-2.3,0.8-3-0.4l-7.8-14c-0.7-1.1-0.6-2,0.4-2.7
		c4.1-3,9-5.4,14.8-7.2c5.8-1.8,12.9-2.7,21.4-2.7c15.5,0,26.5,2.8,32.9,8.5c6.4,5.6,9.6,14.7,9.6,27.1v66.6c0,1.4-0.7,2.1-2.1,2.1
		H475.2z M450.1,155.8c7.3,0,12.9-1.4,16.8-4.2c3.9-2.8,5.8-7.2,5.8-13.1v-7.8c0-0.8-0.4-1.3-1.3-1.3h-16.9
		c-7.6,0-13.2,1.1-16.7,3.3c-3.5,2.2-5.3,5.7-5.3,10.5C432.5,151.6,438.3,155.8,450.1,155.8z"/>
	<path d="M509.6,190.9v-8.7h86.6v8.7H509.6z"/>
	<path fill="#905A27" d="M678.3,172.7c-1.4,0-2.5-0.7-3.4-2.1l-25.8-42.7l-13.7,15.9v26.9c0,1.4-0.7,2.1-2.1,2.1h-19.5
		c-1.4,0-2.1-0.7-2.1-2.1V31c0-1.4,0.7-2.1,2.1-2.1h19.5c1.4,0,2.1,0.7,2.1,2.1v82.9l34.9-41c1.3-1.4,2.6-2.1,4-2.1h21.6
		c0.7,0,1.1,0.2,1.3,0.7c0.1,0.5,0,1-0.4,1.4l-32.4,37.2l37.2,60.5c0.3,0.4,0.3,0.9,0.2,1.4c-0.1,0.5-0.6,0.7-1.3,0.7H678.3z"/>
	<path fill="#905A27" d="M776.2,172.7c-1.4,0-2.1-0.7-2.1-2.1v-7.4h-0.2c-2.4,3.5-6,6.4-10.8,8.6c-4.8,2.2-10.8,3.3-18,3.3
		c-4.7,0-9.1-0.6-13.2-1.9c-4.2-1.3-7.8-3.2-10.9-5.7c-3.1-2.5-5.6-5.7-7.4-9.6c-1.8-3.9-2.7-8.5-2.7-13.9
		c0-11.1,3.6-19.3,10.9-24.5c7.3-5.2,17.2-7.8,29.9-7.8h20.7c0.8,0,1.3-0.4,1.3-1.3v-4.9c0-5.9-1.6-10.2-4.9-12.9
		c-3.2-2.7-9.2-4-17.8-4c-5.8,0-10.5,0.7-14.2,2c-3.7,1.3-6.7,3-9.1,5c-1.3,1-2.3,0.8-3-0.4l-7.8-14c-0.7-1.1-0.6-2,0.4-2.7
		c4.1-3,9-5.4,14.8-7.2c5.8-1.8,12.9-2.7,21.4-2.7c15.5,0,26.5,2.8,32.9,8.5c6.4,5.6,9.6,14.7,9.6,27.1v66.6c0,1.4-0.7,2.1-2.1,2.1
		H776.2z M751,155.8c7.3,0,12.9-1.4,16.8-4.2c3.9-2.8,5.8-7.2,5.8-13.1v-7.8c0-0.8-0.4-1.3-1.3-1.3h-16.9c-7.6,0-13.2,1.1-16.7,3.3
		c-3.5,2.2-5.3,5.7-5.3,10.5C733.5,151.6,739.3,155.8,751,155.8z"/>
	<path fill="#905A27" d="M843,174c-10,0-17.2-2.4-21.5-7.2c-4.3-4.8-6.5-12.1-6.5-22V31c0-1.4,0.7-2.1,2.1-2.1h19.5
		c1.4,0,2.1,0.7,2.1,2.1v112.5c0,3.5,0.7,6,2.1,7.3c1.4,1.3,3.7,2,6.8,2h4.7c1.4,0,2.1,0.7,2.1,2.1v16.9c0,1.4-0.7,2.1-2.1,2.1H843z
		"/>
	<path fill="#905A27" d="M927.2,172.7c-1.4,0-2.1-0.7-2.1-2.1v-7.4h-0.2c-2.4,3.5-6,6.4-10.8,8.6c-4.8,2.2-10.8,3.3-18,3.3
		c-4.7,0-9.1-0.6-13.2-1.9c-4.2-1.3-7.8-3.2-10.9-5.7c-3.1-2.5-5.6-5.7-7.4-9.6c-1.8-3.9-2.7-8.5-2.7-13.9
		c0-11.1,3.6-19.3,10.9-24.5c7.3-5.2,17.2-7.8,29.9-7.8h20.7c0.8,0,1.3-0.4,1.3-1.3v-4.9c0-5.9-1.6-10.2-4.9-12.9
		c-3.2-2.7-9.2-4-17.8-4c-5.8,0-10.5,0.7-14.2,2c-3.7,1.3-6.7,3-9.1,5c-1.3,1-2.3,0.8-3-0.4l-7.8-14c-0.7-1.1-0.6-2,0.4-2.7
		c4.1-3,9-5.4,14.8-7.2c5.8-1.8,12.9-2.7,21.4-2.7c15.5,0,26.5,2.8,32.9,8.5c6.4,5.6,9.6,14.7,9.6,27.1v66.6c0,1.4-0.7,2.1-2.1,2.1
		H927.2z M902,155.8c7.3,0,12.9-1.4,16.8-4.2c3.9-2.8,5.8-7.2,5.8-13.1v-7.8c0-0.8-0.4-1.3-1.3-1.3h-16.9c-7.6,0-13.2,1.1-16.7,3.3
		c-3.5,2.2-5.3,5.7-5.3,10.5C884.5,151.6,890.3,155.8,902,155.8z"/>
	<path fill="#905A27" d="M996.3,174c-10.3,0-17.6-2.5-21.9-7.4c-4.3-4.9-6.5-12.4-6.5-22.4V90.4c0-0.8-0.4-1.3-1.3-1.3H960
		c-1.4,0-2.1-0.7-2.1-2.1V72.9c0-1.4,0.7-2.1,2.1-2.1h6.8c0.8,0,1.3-0.4,1.3-1.3V41.6c0-1.4,0.7-2.1,2.1-2.1h19.5
		c1.4,0,2.1,0.7,2.1,2.1v27.9c0,0.8,0.4,1.3,1.3,1.3h13.5c1.4,0,2.1,0.7,2.1,2.1v14.2c0,1.4-0.7,2.1-2.1,2.1H993
		c-0.8,0-1.3,0.4-1.3,1.3v52.9c0,3.7,0.8,6.2,2.3,7.5c1.5,1.3,3.9,2,7.2,2h5.3c1.4,0,2.1,0.7,2.1,2.1v16.9c0,1.4-0.7,2.1-2.1,2.1
		H996.3z"/>
	<path fill="#905A27" d="M1084.5,172.7c-1.4,0-2.1-0.7-2.1-2.1v-7.4h-0.2c-2.4,3.5-6,6.4-10.8,8.6c-4.8,2.2-10.8,3.3-18,3.3
		c-4.7,0-9.1-0.6-13.2-1.9c-4.2-1.3-7.8-3.2-10.9-5.7c-3.1-2.5-5.6-5.7-7.4-9.6c-1.8-3.9-2.7-8.5-2.7-13.9
		c0-11.1,3.6-19.3,10.9-24.5c7.3-5.2,17.2-7.8,29.9-7.8h20.7c0.8,0,1.3-0.4,1.3-1.3v-4.9c0-5.9-1.6-10.2-4.9-12.9
		c-3.2-2.7-9.2-4-17.8-4c-5.8,0-10.5,0.7-14.2,2c-3.7,1.3-6.7,3-9.1,5c-1.3,1-2.3,0.8-3-0.4l-7.8-14c-0.7-1.1-0.6-2,0.4-2.7
		c4.1-3,9-5.4,14.8-7.2c5.8-1.8,12.9-2.7,21.4-2.7c15.5,0,26.5,2.8,32.9,8.5c6.4,5.6,9.6,14.7,9.6,27.1v66.6c0,1.4-0.7,2.1-2.1,2.1
		H1084.5z M1059.4,155.8c7.3,0,12.9-1.4,16.8-4.2c3.9-2.8,5.8-7.2,5.8-13.1v-7.8c0-0.8-0.4-1.3-1.3-1.3h-16.9
		c-7.6,0-13.2,1.1-16.7,3.3c-3.5,2.2-5.3,5.7-5.3,10.5C1041.8,151.6,1047.7,155.8,1059.4,155.8z"/>
	<path d="M1159.2,190.5c-1.4,0-2.1-0.7-2.1-2.1v-5.7c0-1.4,0.7-2.1,2.1-2.1h5.5c3.5,0,6.1-0.9,7.8-2.7c1.7-1.8,2.5-4.9,2.5-9.1
		v-41.2c0-4.1,0.2-7.5,0.6-10.3c0.4-2.7,1.1-5,1.9-6.9c0.8-1.8,1.9-3.3,3.3-4.4c1.3-1.1,3-2,5-2.8v-0.4c-3.8-1.4-6.6-3.8-8.2-7.2
		c-1.7-3.4-2.5-9.1-2.5-17.1V38c0-4.2-0.8-7.3-2.5-9.1c-1.7-1.8-4.3-2.7-7.8-2.7h-5.5c-1.4,0-2.1-0.7-2.1-2.1v-5.7
		c0-1.4,0.7-2.1,2.1-2.1h7.2c6.8,0,11.7,1.7,14.8,5.2c3.1,3.5,4.7,9.1,4.7,17v41.2c0,6.6,1.1,11.2,3.3,13.6c2.2,2.5,5.1,3.8,8.8,4.1
		c1.4,0.3,2.1,1,2.1,2.1v6.8c0,1.1-0.7,1.8-2.1,2.1c-3.7,0.3-6.6,1.7-8.8,4.1c-2.2,2.5-3.3,7-3.3,13.6v42.1c0,7.9-1.6,13.6-4.7,17
		c-3.1,3.5-8,5.2-14.8,5.2H1159.2z"/>
</g>
</svg>
